<svg xmlns="http://www.w3.org/2000/svg" viewBox="-14 -14 366 325" role="img"><title>Vectorización de recorte documental</title><path fill="currentColor" fill-rule="evenodd" d="M140,2 L139,3 L137,3 L136,4 L134,4 L133,5 L131,5 L130,6 L129,6 L128,7 L127,7 L126,8 L125,8 L124,9 L123,9 L121,11 L120,11 L118,13 L117,13 L116,14 L115,14 L113,16 L112,16 L109,19 L108,19 L107,20 L106,20 L102,24 L101,24 L100,25 L99,25 L88,36 L87,36 L80,43 L80,44 L79,45 L78,45 L77,46 L77,47 L76,48 L75,48 L75,49 L70,54 L70,55 L65,60 L65,61 L61,65 L61,66 L58,69 L58,70 L55,73 L55,74 L52,77 L52,78 L51,79 L28,79 L27,78 L24,78 L23,77 L20,77 L18,75 L17,75 L16,74 L15,74 L7,66 L7,64 L6,63 L6,60 L5,59 L5,57 L4,56 L3,56 L2,57 L2,59 L3,60 L3,64 L4,65 L4,66 L5,67 L5,68 L6,69 L6,70 L11,75 L12,75 L14,77 L15,77 L16,78 L17,78 L18,79 L20,79 L21,80 L22,80 L23,81 L24,80 L25,81 L27,81 L28,82 L37,82 L38,83 L39,82 L40,83 L41,82 L48,82 L49,83 L47,85 L47,86 L45,88 L45,89 L44,90 L44,91 L42,93 L42,94 L41,95 L41,96 L39,98 L39,100 L37,102 L37,103 L36,104 L36,105 L35,106 L35,107 L34,108 L34,109 L33,110 L33,111 L32,112 L32,113 L30,115 L30,117 L29,118 L29,119 L28,120 L28,121 L27,122 L27,124 L26,125 L26,126 L25,127 L25,129 L24,130 L24,131 L23,132 L23,140 L22,141 L22,148 L21,149 L21,170 L22,171 L22,177 L23,178 L22,179 L23,180 L23,185 L24,186 L24,188 L25,189 L25,193 L26,194 L26,195 L27,196 L27,198 L28,199 L28,200 L29,201 L29,202 L30,203 L30,205 L31,206 L31,207 L33,209 L33,210 L36,213 L36,214 L37,215 L37,216 L46,225 L47,225 L50,228 L51,228 L53,230 L54,230 L55,231 L56,231 L57,232 L58,232 L59,233 L60,233 L61,234 L62,234 L63,235 L64,235 L65,236 L68,236 L69,237 L71,237 L72,238 L74,238 L75,239 L80,239 L81,240 L87,240 L88,241 L89,240 L90,241 L102,241 L103,240 L109,240 L110,239 L117,239 L118,238 L120,238 L121,237 L125,237 L126,236 L128,236 L129,235 L132,235 L133,234 L134,234 L135,233 L137,233 L138,232 L140,232 L141,231 L142,231 L143,230 L145,230 L146,229 L147,229 L148,228 L149,228 L150,227 L152,227 L154,225 L155,225 L156,224 L157,224 L158,223 L159,223 L161,221 L162,221 L163,220 L164,220 L166,218 L167,218 L169,216 L170,216 L170,215 L171,214 L172,214 L175,211 L176,211 L182,205 L183,205 L184,204 L184,203 L185,202 L186,202 L188,200 L188,199 L193,194 L193,193 L195,191 L195,190 L197,188 L197,187 L200,184 L200,183 L201,182 L201,181 L202,180 L202,179 L203,178 L203,177 L204,176 L204,175 L205,174 L205,172 L206,171 L206,170 L207,169 L207,166 L208,165 L208,162 L209,161 L209,155 L210,154 L210,141 L209,140 L209,134 L208,133 L208,127 L207,126 L207,125 L206,124 L206,122 L205,121 L205,120 L204,119 L204,117 L203,116 L203,115 L202,114 L202,113 L200,111 L200,110 L199,109 L199,108 L198,107 L198,106 L197,105 L197,104 L195,102 L195,101 L193,99 L193,98 L191,96 L192,95 L196,95 L197,94 L202,94 L203,93 L211,93 L212,92 L216,92 L217,91 L224,91 L225,90 L230,90 L231,89 L240,89 L241,88 L245,88 L246,87 L256,87 L257,86 L258,87 L259,86 L273,86 L274,85 L283,85 L284,86 L289,86 L290,87 L293,87 L294,88 L295,88 L298,91 L298,94 L295,97 L294,97 L292,99 L290,99 L289,100 L287,100 L286,101 L284,101 L283,102 L281,102 L280,103 L277,103 L276,104 L274,104 L273,105 L270,105 L269,106 L268,105 L267,106 L266,106 L265,107 L261,107 L260,108 L257,108 L256,109 L252,109 L251,110 L249,110 L248,111 L244,111 L243,112 L241,112 L240,113 L237,113 L236,114 L233,114 L232,115 L229,115 L228,116 L226,116 L225,117 L223,117 L222,118 L220,118 L219,119 L218,119 L217,120 L217,124 L218,125 L220,125 L221,126 L223,126 L224,127 L229,127 L230,128 L245,128 L246,127 L258,127 L259,126 L267,126 L268,125 L280,125 L281,124 L291,124 L292,123 L313,123 L314,124 L317,124 L318,125 L320,125 L324,129 L324,130 L325,131 L325,137 L322,140 L321,140 L320,141 L319,141 L318,142 L315,142 L314,143 L312,143 L311,144 L304,144 L303,145 L298,145 L297,146 L283,146 L282,147 L281,147 L280,146 L279,147 L263,147 L262,148 L246,148 L245,149 L239,149 L238,150 L233,150 L232,151 L229,151 L228,152 L226,152 L225,153 L223,153 L221,155 L220,155 L220,156 L219,157 L218,157 L218,158 L217,159 L217,166 L218,167 L218,168 L219,169 L219,170 L223,174 L224,174 L225,175 L226,175 L227,176 L229,176 L230,177 L238,177 L239,178 L245,178 L246,177 L260,177 L261,176 L267,176 L268,175 L273,175 L274,174 L281,174 L282,173 L288,173 L289,172 L296,172 L297,171 L302,171 L303,170 L323,170 L324,171 L326,171 L327,172 L328,172 L329,173 L330,173 L331,174 L331,175 L332,176 L332,179 L331,180 L330,180 L329,181 L328,181 L327,182 L326,182 L325,183 L323,183 L322,184 L319,184 L318,185 L316,185 L315,186 L310,186 L309,187 L305,187 L304,188 L298,188 L297,189 L293,189 L292,190 L283,190 L282,191 L276,191 L275,192 L265,192 L264,193 L256,193 L255,194 L245,194 L244,195 L234,195 L233,196 L226,196 L225,197 L224,196 L223,197 L218,197 L217,198 L212,198 L211,199 L210,199 L209,200 L209,205 L210,206 L210,207 L211,208 L211,209 L212,210 L213,210 L215,212 L217,212 L218,213 L219,213 L220,214 L224,214 L225,215 L229,215 L230,216 L272,216 L273,215 L279,215 L280,216 L281,215 L285,215 L286,216 L287,215 L289,215 L290,216 L300,216 L301,217 L305,217 L306,218 L308,218 L309,219 L310,219 L311,220 L312,220 L313,221 L313,222 L315,224 L314,225 L314,226 L312,228 L311,228 L309,230 L307,230 L306,231 L303,231 L302,232 L299,232 L298,233 L293,233 L292,234 L287,234 L286,235 L278,235 L277,236 L270,236 L269,237 L248,237 L247,238 L244,238 L243,237 L242,238 L207,238 L206,239 L199,239 L198,238 L197,238 L196,239 L194,239 L193,238 L192,239 L172,239 L171,240 L164,240 L163,241 L158,241 L157,242 L154,242 L153,243 L148,243 L147,244 L146,244 L145,245 L142,245 L141,246 L140,246 L139,247 L136,247 L135,248 L134,248 L133,249 L132,249 L131,250 L130,250 L129,251 L127,251 L125,253 L123,253 L121,255 L120,255 L119,256 L118,256 L117,257 L116,257 L114,259 L113,259 L111,261 L110,261 L109,262 L108,262 L105,265 L104,265 L98,271 L97,271 L91,277 L91,278 L89,280 L89,281 L87,283 L87,287 L88,288 L88,289 L90,291 L91,291 L92,292 L97,292 L98,293 L100,293 L101,292 L101,290 L100,290 L99,289 L93,289 L90,286 L90,284 L92,282 L92,281 L103,270 L104,270 L108,266 L109,266 L111,264 L112,264 L114,262 L115,262 L117,260 L118,260 L119,259 L120,259 L122,257 L123,257 L124,256 L126,256 L128,254 L129,254 L130,253 L132,253 L133,252 L134,252 L135,251 L136,251 L137,250 L139,250 L140,249 L142,249 L143,248 L145,248 L146,247 L149,247 L150,246 L152,246 L153,245 L158,245 L159,244 L163,244 L164,243 L172,243 L173,242 L187,242 L188,241 L251,241 L252,240 L267,240 L268,239 L280,239 L281,238 L286,238 L287,237 L294,237 L295,236 L298,236 L299,235 L304,235 L305,234 L306,234 L307,233 L310,233 L311,232 L312,232 L315,229 L316,229 L317,228 L317,221 L313,217 L312,217 L310,215 L308,215 L307,214 L302,214 L301,213 L297,213 L296,212 L295,213 L294,212 L260,212 L259,213 L258,212 L257,213 L256,212 L255,213 L239,213 L238,212 L237,213 L236,212 L235,213 L234,213 L233,212 L225,212 L224,211 L222,211 L221,210 L218,210 L217,209 L216,209 L213,206 L213,205 L212,204 L212,202 L213,201 L217,201 L218,200 L227,200 L228,199 L232,199 L233,198 L245,198 L246,197 L254,197 L255,196 L267,196 L268,195 L274,195 L275,194 L283,194 L284,193 L291,193 L292,192 L300,192 L301,191 L304,191 L305,190 L309,190 L310,189 L311,190 L312,189 L315,189 L316,188 L320,188 L321,187 L322,187 L323,186 L326,186 L327,185 L328,185 L329,184 L330,184 L331,183 L332,183 L334,181 L334,180 L335,179 L335,176 L334,175 L334,173 L331,170 L330,170 L329,169 L328,169 L327,168 L323,168 L322,167 L306,167 L305,168 L295,168 L294,169 L290,169 L289,170 L281,170 L280,171 L275,171 L274,172 L266,172 L265,173 L261,173 L260,174 L246,174 L245,175 L241,175 L240,174 L231,174 L230,173 L228,173 L227,172 L226,172 L223,169 L222,169 L221,168 L221,166 L220,165 L220,160 L223,157 L224,157 L225,156 L226,156 L227,155 L229,155 L230,154 L233,154 L234,153 L238,153 L239,152 L248,152 L249,151 L260,151 L261,150 L282,150 L283,149 L296,149 L297,148 L304,148 L305,147 L311,147 L312,146 L314,146 L315,145 L316,146 L317,145 L318,145 L319,144 L321,144 L323,142 L325,142 L327,140 L327,139 L328,138 L328,137 L329,136 L329,134 L328,133 L328,130 L327,129 L327,128 L326,127 L326,126 L323,123 L322,123 L321,122 L320,122 L319,121 L313,121 L312,120 L292,120 L291,121 L280,121 L279,122 L269,122 L268,123 L258,123 L257,124 L247,124 L246,125 L230,125 L229,124 L225,124 L224,123 L222,123 L221,122 L222,121 L223,121 L224,120 L225,120 L226,119 L228,119 L229,118 L232,118 L233,117 L236,117 L237,116 L240,116 L241,115 L244,115 L245,114 L248,114 L249,113 L253,113 L254,112 L256,112 L257,111 L261,111 L262,110 L265,110 L266,109 L269,109 L270,108 L272,108 L273,107 L277,107 L278,106 L280,106 L281,105 L284,105 L285,104 L287,104 L288,103 L290,103 L291,102 L293,102 L294,101 L295,101 L297,99 L298,99 L300,97 L300,96 L301,95 L301,90 L298,87 L298,86 L297,86 L296,85 L295,85 L294,84 L292,84 L291,83 L280,83 L279,82 L277,82 L276,83 L275,83 L274,82 L273,83 L257,83 L256,84 L249,84 L248,85 L239,85 L238,86 L231,86 L230,87 L224,87 L223,88 L218,88 L217,89 L212,89 L211,90 L210,89 L209,90 L208,89 L207,90 L204,90 L203,91 L195,91 L194,92 L188,92 L185,89 L185,88 L184,88 L183,87 L183,86 L179,82 L178,82 L174,78 L173,78 L171,76 L170,76 L169,75 L167,75 L166,74 L165,74 L164,73 L162,73 L161,72 L158,72 L157,71 L153,71 L152,70 L147,70 L146,69 L126,69 L125,70 L124,69 L123,70 L122,69 L121,70 L120,70 L119,69 L119,68 L120,67 L120,66 L121,65 L121,63 L123,61 L123,60 L124,59 L124,58 L125,57 L125,56 L126,55 L126,54 L127,53 L127,52 L129,50 L129,48 L131,46 L131,44 L133,42 L133,40 L134,39 L134,38 L135,37 L135,36 L137,34 L137,33 L139,31 L139,29 L140,28 L140,27 L141,26 L141,25 L142,24 L142,23 L143,22 L143,20 L144,19 L144,18 L145,17 L145,15 L146,14 L146,12 L147,11 L147,6 L146,5 L146,4 L145,4 L144,3 L141,3 Z M187,96 L188,97 L188,98 L192,102 L192,103 L193,104 L193,105 L195,107 L195,108 L196,109 L196,110 L198,112 L198,113 L199,114 L199,116 L201,118 L201,119 L202,120 L202,122 L203,123 L203,125 L204,126 L204,127 L205,128 L205,134 L206,135 L206,139 L207,140 L207,155 L206,156 L206,159 L205,160 L205,165 L204,166 L204,167 L203,168 L203,170 L202,171 L202,173 L201,174 L201,175 L199,177 L199,179 L198,180 L198,181 L196,183 L196,184 L193,187 L193,188 L192,189 L192,190 L185,197 L185,198 L184,199 L183,199 L183,200 L179,204 L178,204 L172,210 L171,210 L168,213 L167,213 L165,215 L164,215 L164,216 L163,217 L162,217 L161,218 L160,218 L158,220 L157,220 L156,221 L155,221 L154,222 L153,222 L152,223 L151,223 L150,224 L149,224 L148,225 L147,225 L146,226 L145,226 L144,227 L142,227 L141,228 L140,228 L139,229 L138,229 L137,230 L135,230 L134,231 L131,231 L130,232 L129,232 L128,233 L125,233 L124,234 L121,234 L120,235 L116,235 L115,236 L111,236 L110,237 L98,237 L97,238 L90,238 L89,237 L81,237 L80,236 L76,236 L75,235 L72,235 L71,234 L70,234 L69,233 L66,233 L65,232 L64,232 L63,231 L62,231 L61,230 L60,230 L59,229 L58,229 L57,228 L56,228 L55,227 L54,227 L51,224 L50,224 L41,215 L41,214 L37,210 L37,209 L35,207 L35,206 L33,204 L33,202 L32,201 L32,200 L31,199 L31,197 L30,196 L30,195 L29,194 L29,193 L28,192 L28,190 L27,189 L27,185 L26,184 L26,182 L25,181 L25,170 L24,169 L24,150 L25,149 L25,140 L26,139 L26,134 L27,133 L27,130 L28,129 L28,128 L29,127 L29,126 L30,125 L30,124 L31,123 L31,121 L32,120 L32,119 L33,118 L33,117 L34,116 L34,115 L35,114 L35,113 L36,112 L36,111 L37,110 L37,108 L38,107 L38,106 L40,104 L40,103 L41,102 L41,100 L44,97 L44,96 L45,95 L45,94 L47,92 L47,91 L49,89 L49,88 L50,87 L50,86 L51,85 L51,84 L53,82 L56,82 L57,81 L66,81 L67,80 L71,80 L72,79 L77,79 L78,78 L84,78 L85,77 L91,77 L92,76 L97,76 L98,75 L105,75 L106,74 L112,74 L113,75 L113,76 L112,77 L112,78 L111,79 L111,82 L110,83 L110,90 L111,91 L111,92 L112,93 L112,94 L113,95 L114,95 L116,97 L117,97 L118,98 L121,98 L122,99 L126,99 L127,100 L129,100 L130,99 L131,100 L145,100 L146,99 L147,100 L152,100 L153,99 L164,99 L165,98 L173,98 L174,97 L182,97 L183,96 Z M113,83 L114,82 L114,80 L115,79 L115,77 L116,76 L116,75 L118,73 L126,73 L127,72 L143,72 L144,73 L152,73 L153,74 L157,74 L158,75 L160,75 L161,76 L163,76 L164,77 L165,77 L166,78 L167,78 L168,79 L170,79 L175,84 L176,84 L183,91 L183,93 L182,94 L181,93 L180,93 L179,94 L175,94 L174,95 L164,95 L163,96 L154,96 L153,97 L126,97 L125,96 L123,96 L122,95 L119,95 L118,94 L117,94 L113,90 Z M144,8 L144,9 L143,10 L143,14 L142,15 L142,16 L141,17 L141,19 L140,20 L140,21 L139,22 L139,23 L138,24 L138,25 L137,26 L137,27 L136,28 L136,29 L135,30 L135,31 L133,33 L133,35 L131,37 L131,38 L130,39 L130,40 L129,41 L129,42 L128,43 L128,44 L127,45 L127,47 L125,49 L125,50 L124,51 L124,52 L123,53 L123,54 L122,55 L122,56 L121,57 L121,58 L120,59 L120,60 L119,61 L119,62 L118,63 L118,64 L117,65 L117,66 L116,67 L116,68 L115,69 L115,70 L114,71 L105,71 L104,72 L99,72 L98,73 L93,73 L92,74 L91,73 L90,74 L85,74 L84,75 L79,75 L78,76 L72,76 L71,77 L64,77 L63,78 L58,78 L57,77 L57,76 L60,73 L60,72 L62,70 L62,69 L64,67 L64,66 L65,65 L66,65 L66,64 L69,61 L69,60 L70,59 L71,59 L71,58 L76,53 L76,52 L79,49 L80,49 L80,48 L94,34 L95,34 L95,33 L96,32 L97,32 L102,27 L103,27 L107,23 L108,23 L109,22 L110,22 L112,20 L113,20 L115,18 L116,18 L118,16 L119,16 L121,14 L122,14 L124,12 L125,12 L126,11 L128,11 L129,10 L129,9 L130,8 L131,9 L132,8 L133,8 L134,7 L136,7 L137,6 L142,6 Z M44,0 L41,0 L41,1 L38,4 L35,1 L35,0 L34,0 L34,2 L33,3 L33,6 L32,7 L32,9 L31,10 L31,12 L30,13 L30,15 L29,16 L29,18 L30,18 L32,16 L33,16 L34,15 L35,15 L38,12 L39,12 L41,10 L42,10 L44,8 L45,8 L44,8 L43,7 L42,7 L40,5 L42,3 L42,2 Z"/></svg>