<svg xmlns="http://www.w3.org/2000/svg" viewBox="-14 -14 354 294" role="img"><title>Vectorización de recorte documental</title><path fill="currentColor" fill-rule="evenodd" d="M299,75 L295,71 L295,70 L292,67 L292,66 L283,57 L283,56 L279,52 L279,51 L278,51 L274,47 L273,47 L266,40 L265,40 L262,37 L261,37 L259,35 L258,35 L255,32 L254,32 L252,30 L251,30 L249,28 L248,28 L247,27 L246,27 L244,25 L243,25 L242,24 L241,24 L239,22 L237,22 L235,20 L233,20 L231,18 L229,18 L227,16 L225,16 L224,15 L223,15 L222,14 L220,14 L219,13 L218,13 L217,12 L214,12 L213,11 L212,11 L211,10 L209,10 L208,9 L206,9 L205,8 L202,8 L201,7 L198,7 L197,6 L193,6 L192,5 L189,5 L188,4 L181,4 L180,3 L172,3 L171,2 L170,3 L169,2 L154,2 L153,3 L152,2 L151,3 L145,3 L144,4 L138,4 L137,5 L134,5 L133,6 L129,6 L128,7 L126,7 L125,8 L122,8 L121,9 L120,9 L119,10 L117,10 L116,11 L115,11 L114,12 L112,12 L111,13 L110,13 L109,14 L108,14 L107,15 L106,15 L105,16 L103,16 L101,18 L100,18 L98,20 L97,20 L95,22 L94,22 L92,24 L91,24 L89,26 L88,26 L82,32 L81,32 L69,44 L69,45 L67,47 L67,48 L61,54 L61,55 L59,57 L59,58 L58,59 L58,60 L56,62 L56,63 L54,65 L54,66 L53,67 L53,68 L51,70 L51,71 L50,72 L50,74 L49,75 L49,76 L48,77 L48,78 L47,79 L47,80 L46,81 L46,82 L45,83 L45,84 L44,85 L44,86 L43,87 L43,89 L42,90 L42,91 L41,92 L41,95 L40,96 L40,98 L39,99 L39,101 L38,102 L38,104 L37,105 L37,107 L36,108 L36,110 L35,111 L35,115 L34,116 L34,118 L33,119 L33,126 L32,127 L32,133 L31,134 L31,144 L30,145 L31,146 L30,147 L30,221 L29,222 L29,229 L28,230 L28,232 L27,233 L27,235 L25,237 L25,238 L24,239 L24,240 L21,243 L21,244 L15,250 L14,250 L10,254 L9,254 L2,261 L4,263 L6,261 L10,261 L11,260 L15,260 L16,259 L24,259 L25,258 L30,258 L31,257 L35,257 L36,256 L37,256 L38,255 L41,255 L45,251 L45,248 L43,248 L42,249 L42,250 L40,252 L39,252 L38,253 L36,253 L35,254 L32,254 L31,255 L24,255 L23,256 L19,256 L18,257 L13,257 L12,256 L14,254 L15,254 L16,253 L16,252 L17,251 L18,251 L24,245 L24,244 L27,241 L27,240 L29,238 L29,237 L30,236 L30,233 L31,232 L31,230 L32,229 L32,221 L33,220 L33,140 L34,139 L33,138 L34,137 L34,134 L35,133 L35,124 L36,123 L36,121 L37,120 L37,115 L38,114 L38,112 L39,111 L39,108 L40,107 L40,104 L41,103 L41,102 L42,101 L42,99 L43,98 L43,95 L44,94 L44,93 L45,92 L45,90 L46,89 L46,88 L47,87 L47,86 L48,85 L48,84 L49,83 L49,82 L50,81 L50,80 L51,79 L51,77 L52,76 L52,75 L53,74 L53,73 L55,71 L55,70 L56,69 L56,68 L57,67 L57,66 L59,64 L59,63 L61,61 L61,60 L64,57 L64,56 L67,53 L67,52 L70,49 L70,48 L76,42 L76,41 L77,40 L78,40 L86,32 L87,32 L92,27 L93,27 L96,24 L97,24 L99,22 L100,22 L101,21 L102,21 L104,19 L105,19 L106,18 L108,18 L110,16 L112,16 L113,15 L114,15 L115,14 L116,14 L117,13 L119,13 L120,12 L122,12 L123,11 L125,11 L126,10 L128,10 L129,9 L133,9 L134,8 L137,8 L138,7 L143,7 L144,6 L154,6 L155,5 L170,5 L171,6 L182,6 L183,7 L187,7 L188,8 L193,8 L194,9 L196,9 L197,10 L201,10 L202,11 L205,11 L206,12 L208,12 L209,13 L210,13 L211,14 L214,14 L215,15 L216,15 L217,16 L219,16 L220,17 L221,17 L222,18 L224,18 L225,19 L226,19 L227,20 L228,20 L229,21 L230,21 L231,22 L232,22 L233,23 L234,23 L235,24 L236,24 L237,25 L238,25 L239,26 L240,26 L242,28 L243,28 L245,30 L246,30 L247,31 L248,31 L250,33 L251,33 L253,35 L254,35 L256,37 L257,37 L260,40 L261,40 L265,44 L266,44 L271,49 L272,49 L274,51 L274,52 L275,52 L282,59 L282,60 L288,66 L288,67 L291,70 L291,71 L295,75 L295,76 L296,77 L296,78 L299,81 L299,82 L300,83 L300,84 L302,86 L302,87 L303,88 L303,89 L304,90 L304,91 L305,92 L305,93 L306,94 L306,95 L307,96 L307,97 L309,99 L309,101 L310,102 L310,103 L311,104 L311,106 L312,107 L312,109 L313,110 L313,112 L314,113 L314,114 L315,115 L315,118 L316,119 L316,121 L317,122 L317,127 L318,128 L318,131 L319,132 L319,153 L320,154 L319,155 L319,166 L318,167 L318,171 L317,172 L317,176 L316,177 L316,179 L315,180 L315,183 L314,184 L314,186 L313,187 L313,188 L312,189 L312,191 L311,192 L311,193 L310,194 L310,195 L309,196 L309,198 L307,200 L307,202 L306,203 L306,204 L304,206 L304,207 L303,208 L303,209 L300,212 L300,213 L296,217 L296,218 L291,223 L291,224 L283,232 L282,232 L276,238 L275,238 L275,239 L274,240 L273,240 L270,243 L269,243 L267,245 L266,245 L264,247 L263,247 L262,248 L261,248 L260,249 L259,249 L258,250 L257,250 L256,251 L255,251 L253,253 L251,253 L250,254 L249,254 L248,255 L247,255 L246,256 L244,256 L243,257 L241,257 L240,258 L238,258 L237,259 L232,259 L231,260 L226,260 L225,261 L224,261 L223,260 L221,260 L220,261 L219,260 L214,260 L213,259 L210,259 L209,258 L207,258 L206,257 L205,257 L203,255 L201,255 L192,246 L192,245 L190,243 L190,242 L189,241 L189,239 L188,238 L188,237 L187,236 L187,233 L186,232 L186,228 L185,227 L185,214 L186,213 L186,208 L187,207 L187,203 L188,202 L188,201 L189,200 L189,199 L190,198 L190,196 L191,195 L191,194 L192,193 L192,192 L195,189 L195,188 L196,187 L197,187 L198,186 L198,185 L200,183 L201,183 L201,182 L202,181 L204,181 L207,178 L209,178 L210,177 L211,177 L212,176 L215,176 L216,175 L227,175 L228,176 L231,176 L232,177 L234,177 L235,178 L236,178 L237,179 L239,179 L246,186 L246,187 L248,189 L248,190 L249,191 L249,193 L250,194 L250,195 L251,196 L250,197 L251,198 L251,201 L252,202 L252,207 L251,208 L251,209 L252,210 L251,211 L251,214 L250,215 L250,216 L249,217 L249,218 L248,219 L248,220 L241,227 L240,227 L238,229 L236,229 L235,230 L233,230 L232,231 L223,231 L222,230 L221,230 L220,229 L219,229 L214,224 L214,223 L213,222 L213,220 L212,219 L212,214 L213,213 L213,212 L214,211 L214,210 L218,206 L219,206 L220,205 L222,205 L223,204 L224,205 L228,205 L229,204 L230,204 L228,202 L220,202 L219,203 L217,203 L211,209 L211,210 L210,211 L210,222 L211,223 L211,225 L212,226 L212,227 L216,231 L217,231 L218,232 L219,232 L220,233 L223,233 L224,234 L230,234 L231,233 L234,233 L235,232 L238,232 L239,231 L240,231 L242,229 L243,229 L244,228 L245,228 L245,227 L246,226 L247,226 L249,224 L249,223 L250,222 L250,221 L252,219 L252,217 L253,216 L253,215 L254,214 L254,197 L253,196 L253,195 L252,194 L252,190 L250,188 L250,187 L249,186 L249,185 L247,183 L247,182 L244,179 L243,179 L241,177 L240,177 L239,176 L237,176 L236,175 L235,175 L234,174 L232,174 L231,173 L225,173 L224,172 L218,172 L217,173 L212,173 L211,174 L210,174 L209,175 L206,175 L204,177 L203,177 L201,179 L200,179 L192,187 L192,188 L190,190 L190,191 L188,193 L188,194 L187,195 L188,196 L186,198 L186,199 L185,200 L185,203 L184,204 L184,207 L183,208 L183,216 L182,217 L182,218 L183,219 L183,233 L184,234 L184,236 L185,237 L185,239 L186,240 L186,241 L187,242 L187,243 L188,244 L188,246 L192,250 L192,251 L194,253 L195,253 L199,257 L200,257 L202,259 L204,259 L205,260 L206,260 L207,261 L210,261 L211,262 L213,262 L214,263 L231,263 L232,262 L236,262 L237,261 L240,261 L241,260 L244,260 L245,259 L246,259 L247,258 L249,258 L250,257 L251,257 L252,256 L253,256 L254,255 L255,255 L256,254 L257,254 L258,253 L259,253 L261,251 L263,251 L265,249 L266,249 L268,247 L269,247 L271,245 L272,245 L274,243 L275,243 L275,242 L276,241 L277,241 L282,236 L283,236 L294,225 L294,224 L295,223 L296,223 L296,222 L299,219 L299,218 L304,213 L304,212 L306,210 L306,209 L307,208 L307,207 L308,206 L308,205 L309,204 L309,203 L310,202 L310,201 L311,200 L311,199 L312,198 L312,197 L313,196 L313,195 L314,194 L314,192 L315,191 L315,189 L316,188 L316,187 L317,186 L317,183 L318,182 L318,180 L319,179 L319,176 L320,175 L320,173 L321,172 L321,165 L322,164 L322,161 L321,160 L322,159 L322,156 L323,155 L323,154 L322,153 L322,136 L321,135 L321,128 L320,127 L320,124 L319,123 L319,119 L318,118 L318,116 L317,115 L317,113 L316,112 L316,110 L315,109 L315,107 L314,106 L314,104 L313,103 L313,102 L312,101 L312,99 L311,98 L311,97 L309,95 L309,93 L308,92 L308,91 L306,89 L306,87 L305,86 L305,85 L303,83 L303,82 L301,80 L301,79 L300,78 L300,77 L299,76 Z"/></svg>