<svg xmlns="http://www.w3.org/2000/svg" viewBox="-14 -14 164 336" role="img"><title>Vectorización de recorte documental</title><path fill="currentColor" fill-rule="evenodd" d="M97,2 L86,2 L85,3 L77,3 L76,4 L75,4 L74,5 L71,5 L70,6 L68,6 L67,7 L65,7 L64,8 L63,8 L62,9 L61,9 L60,10 L59,10 L58,11 L57,11 L56,12 L55,12 L51,16 L50,16 L49,17 L49,18 L47,20 L47,21 L46,22 L46,23 L45,24 L45,25 L44,26 L44,27 L43,28 L43,31 L42,32 L42,34 L41,35 L41,48 L42,49 L42,52 L41,53 L28,53 L27,52 L23,52 L22,51 L18,51 L16,49 L15,49 L14,48 L13,48 L8,43 L8,42 L6,40 L6,37 L5,36 L5,33 L6,32 L5,31 L6,30 L6,28 L7,27 L7,26 L10,23 L10,22 L13,19 L14,19 L15,18 L16,18 L17,17 L18,17 L19,16 L26,16 L27,17 L28,17 L29,18 L29,19 L31,21 L31,23 L32,22 L34,22 L34,21 L33,20 L33,19 L31,17 L31,16 L30,15 L29,15 L27,13 L20,13 L19,14 L17,14 L16,15 L15,15 L14,16 L13,16 L11,18 L10,18 L6,22 L6,23 L5,24 L5,25 L4,26 L4,28 L3,29 L3,31 L2,32 L2,36 L3,37 L2,38 L3,39 L3,40 L4,41 L4,42 L5,43 L5,44 L8,47 L8,48 L9,48 L12,51 L13,51 L14,52 L15,52 L16,53 L18,53 L19,54 L22,54 L23,55 L32,55 L33,56 L38,56 L39,55 L41,55 L43,57 L43,60 L44,61 L44,63 L45,64 L45,67 L46,68 L46,69 L47,70 L47,72 L48,73 L48,74 L49,75 L49,76 L51,78 L51,80 L52,81 L52,82 L51,83 L51,85 L50,86 L50,87 L49,88 L49,90 L48,91 L48,94 L47,95 L47,99 L46,100 L46,101 L47,102 L47,104 L46,105 L46,114 L47,115 L47,121 L48,122 L48,124 L49,125 L49,128 L50,129 L50,132 L51,133 L51,136 L52,137 L52,140 L53,141 L53,144 L54,145 L53,146 L54,147 L54,149 L55,150 L55,154 L56,155 L56,161 L57,162 L57,173 L56,174 L56,177 L55,178 L55,181 L53,183 L53,184 L50,187 L48,187 L47,188 L46,188 L45,189 L42,189 L41,190 L40,190 L39,191 L36,191 L35,192 L34,192 L33,193 L31,193 L30,194 L29,194 L28,195 L26,195 L25,196 L24,196 L23,197 L22,197 L21,198 L20,198 L17,201 L16,201 L11,206 L11,207 L10,208 L10,209 L9,210 L9,212 L8,213 L8,225 L9,226 L9,227 L10,228 L10,231 L11,232 L11,234 L12,235 L12,237 L13,238 L13,239 L14,240 L14,242 L15,243 L15,245 L16,246 L16,248 L18,250 L18,252 L19,253 L19,254 L20,255 L20,257 L21,258 L21,259 L22,260 L22,261 L23,262 L23,263 L24,264 L24,266 L25,267 L25,268 L26,269 L26,270 L27,271 L27,272 L28,273 L28,274 L29,275 L29,276 L30,277 L30,278 L31,279 L31,280 L32,281 L32,282 L33,283 L33,284 L34,285 L34,286 L35,287 L35,288 L37,290 L37,291 L38,292 L38,293 L44,299 L44,300 L45,300 L48,303 L50,303 L51,304 L54,304 L55,305 L57,305 L58,304 L62,304 L63,303 L66,303 L67,302 L68,302 L69,301 L70,301 L76,295 L77,295 L77,294 L79,292 L79,291 L83,287 L83,286 L85,284 L85,283 L87,281 L87,280 L90,277 L90,276 L92,274 L92,273 L95,270 L95,268 L98,265 L98,264 L100,262 L100,261 L101,260 L101,259 L103,257 L103,256 L104,255 L104,254 L105,253 L105,252 L106,251 L106,250 L108,248 L108,247 L109,246 L109,245 L110,244 L110,243 L111,242 L111,241 L112,240 L112,239 L113,238 L113,237 L114,236 L114,235 L115,234 L115,233 L116,232 L116,230 L117,229 L117,228 L118,227 L118,216 L117,215 L117,214 L116,213 L116,212 L111,207 L110,207 L109,206 L108,206 L107,205 L106,205 L105,204 L102,204 L101,203 L96,203 L95,202 L90,202 L89,201 L88,202 L87,201 L64,201 L63,202 L56,202 L55,203 L49,203 L48,204 L45,204 L44,205 L42,205 L41,206 L39,206 L38,207 L36,207 L34,209 L33,209 L32,210 L31,210 L28,213 L28,214 L26,216 L26,218 L25,219 L25,231 L26,232 L26,236 L27,237 L27,238 L28,239 L28,241 L29,242 L29,243 L30,244 L30,246 L31,247 L31,248 L32,249 L32,251 L33,252 L33,253 L35,255 L35,256 L36,257 L36,258 L37,259 L37,260 L39,262 L39,264 L42,267 L42,268 L45,271 L45,272 L49,276 L49,277 L51,279 L52,279 L53,280 L53,281 L54,281 L58,285 L59,285 L60,286 L64,286 L65,285 L66,285 L73,278 L73,277 L75,275 L75,274 L77,272 L77,271 L79,269 L79,268 L81,266 L81,265 L82,264 L82,262 L83,261 L83,260 L84,259 L84,258 L85,257 L85,256 L86,255 L86,253 L87,252 L87,251 L88,250 L88,248 L89,247 L89,246 L90,245 L90,243 L91,242 L91,240 L92,239 L92,236 L93,235 L93,233 L94,232 L94,226 L95,225 L95,222 L94,221 L94,220 L93,219 L93,218 L92,218 L91,217 L90,217 L89,216 L87,216 L86,215 L79,215 L78,214 L65,214 L64,215 L56,215 L55,216 L53,216 L52,217 L50,217 L49,218 L48,218 L47,219 L46,219 L45,220 L45,221 L43,223 L43,225 L42,226 L42,228 L43,229 L42,230 L42,231 L43,232 L42,233 L43,234 L43,240 L44,241 L44,242 L45,243 L45,246 L46,247 L46,249 L47,250 L47,251 L48,252 L48,254 L49,255 L49,257 L51,259 L51,260 L52,261 L52,262 L53,263 L53,264 L58,269 L62,269 L63,268 L64,268 L65,267 L66,267 L68,265 L69,265 L69,264 L70,263 L71,263 L71,262 L75,258 L75,257 L76,256 L76,255 L77,254 L77,253 L79,251 L79,249 L80,248 L80,247 L81,246 L81,244 L82,243 L82,232 L81,231 L81,230 L77,226 L75,226 L73,224 L71,224 L70,223 L65,223 L64,224 L63,224 L62,225 L60,225 L57,228 L57,229 L56,230 L56,231 L55,232 L55,235 L54,236 L55,237 L54,238 L55,239 L55,242 L59,246 L61,246 L62,247 L66,247 L67,246 L68,246 L71,243 L71,241 L72,240 L71,239 L71,237 L70,238 L69,238 L69,240 L68,241 L68,242 L67,243 L66,243 L65,244 L63,244 L62,243 L60,243 L59,242 L59,241 L57,239 L57,235 L58,234 L58,233 L59,232 L59,230 L61,228 L62,228 L63,227 L65,227 L66,226 L70,226 L71,227 L73,227 L79,233 L79,241 L78,242 L78,245 L77,246 L77,248 L76,249 L76,250 L74,252 L74,253 L73,254 L73,256 L64,265 L62,265 L61,266 L59,266 L56,263 L56,262 L55,261 L55,260 L53,258 L53,256 L51,254 L51,252 L50,251 L50,250 L49,249 L49,247 L48,246 L48,244 L47,243 L47,240 L46,239 L46,235 L45,234 L45,226 L46,225 L46,224 L49,221 L50,221 L51,220 L52,220 L53,219 L56,219 L57,218 L61,218 L62,217 L81,217 L82,218 L85,218 L86,219 L89,219 L92,222 L92,226 L91,227 L91,231 L90,232 L90,236 L89,237 L89,238 L88,239 L88,243 L86,245 L86,247 L85,248 L85,249 L84,250 L84,252 L83,253 L83,255 L82,256 L82,257 L81,258 L81,259 L80,260 L80,261 L79,262 L79,263 L78,264 L78,265 L76,267 L76,268 L74,270 L74,271 L72,273 L72,274 L70,276 L70,277 L66,281 L65,281 L63,283 L60,283 L55,278 L54,278 L52,276 L52,275 L48,271 L48,270 L46,268 L46,267 L45,267 L44,266 L44,265 L43,264 L43,263 L41,261 L41,260 L40,259 L40,258 L38,256 L38,255 L37,254 L37,252 L35,250 L35,248 L34,247 L34,246 L32,244 L32,242 L31,241 L31,239 L30,238 L30,235 L29,234 L29,232 L28,231 L28,219 L29,218 L29,217 L30,216 L30,215 L33,212 L34,212 L35,211 L36,211 L37,210 L38,210 L39,209 L40,209 L41,208 L43,208 L44,207 L48,207 L49,206 L53,206 L54,205 L63,205 L64,204 L90,204 L91,205 L97,205 L98,206 L101,206 L102,207 L105,207 L107,209 L109,209 L114,214 L114,215 L115,216 L115,217 L116,218 L116,224 L115,225 L115,227 L114,228 L114,229 L113,230 L113,231 L112,232 L112,233 L111,234 L111,236 L110,237 L110,238 L108,240 L108,241 L107,242 L107,244 L105,246 L105,247 L104,248 L104,249 L103,250 L103,251 L101,253 L101,254 L100,255 L100,256 L98,258 L98,259 L97,260 L97,261 L94,264 L94,265 L93,266 L93,267 L91,269 L91,270 L90,271 L90,272 L86,276 L86,277 L84,279 L84,280 L82,282 L82,283 L79,286 L79,287 L74,292 L74,293 L69,298 L68,298 L67,299 L66,299 L65,300 L64,300 L63,301 L59,301 L58,302 L56,302 L55,301 L51,301 L50,300 L49,300 L42,293 L42,292 L39,289 L39,288 L38,287 L38,286 L37,285 L37,284 L36,283 L36,282 L35,281 L35,280 L34,279 L34,278 L32,276 L32,274 L30,272 L30,270 L29,269 L29,268 L28,267 L28,266 L27,265 L27,264 L26,263 L26,261 L25,260 L25,259 L24,258 L24,257 L23,256 L23,255 L22,254 L22,253 L21,252 L21,250 L20,249 L20,248 L19,247 L19,245 L18,244 L18,242 L17,241 L17,240 L16,239 L16,237 L15,236 L15,235 L14,234 L14,231 L13,230 L13,229 L12,228 L12,225 L11,224 L11,221 L10,220 L10,216 L11,215 L11,212 L12,211 L12,210 L15,207 L15,206 L17,204 L18,204 L21,201 L22,201 L24,199 L26,199 L27,198 L28,198 L29,197 L31,197 L33,195 L36,195 L37,194 L39,194 L40,193 L41,193 L42,192 L44,192 L45,191 L48,191 L49,190 L50,190 L51,189 L52,189 L56,185 L56,184 L57,183 L57,182 L58,181 L58,179 L59,178 L59,155 L58,154 L58,151 L57,150 L57,145 L56,144 L56,142 L55,141 L55,137 L54,136 L54,134 L53,133 L53,129 L52,128 L52,126 L51,125 L51,122 L50,121 L50,117 L49,116 L49,99 L50,98 L50,95 L51,94 L51,91 L52,90 L52,89 L53,88 L53,86 L54,85 L55,85 L56,86 L56,87 L58,89 L58,92 L57,93 L57,103 L58,104 L58,105 L59,106 L59,108 L61,110 L61,112 L62,112 L63,113 L63,114 L64,114 L66,116 L67,116 L69,118 L70,118 L71,119 L73,119 L74,120 L77,120 L78,121 L83,121 L84,122 L97,122 L98,121 L103,121 L104,120 L106,120 L107,119 L109,119 L110,118 L112,118 L113,117 L114,117 L115,116 L116,116 L117,115 L118,115 L120,113 L121,113 L123,111 L124,111 L126,109 L126,108 L128,106 L128,105 L129,104 L129,103 L131,101 L131,99 L132,98 L132,87 L131,86 L131,83 L130,82 L130,80 L129,79 L129,78 L128,77 L128,76 L127,75 L127,74 L126,73 L126,72 L124,70 L124,69 L120,65 L119,65 L115,61 L114,61 L113,60 L112,60 L111,59 L110,59 L109,58 L107,58 L106,57 L103,57 L102,56 L87,56 L86,57 L83,57 L82,58 L80,58 L79,59 L76,59 L74,61 L72,61 L70,63 L69,63 L67,65 L66,65 L56,75 L56,76 L54,78 L53,77 L53,76 L52,75 L52,74 L51,73 L51,72 L50,71 L50,70 L49,69 L49,67 L48,66 L48,65 L47,64 L47,60 L46,59 L46,56 L47,55 L52,55 L53,54 L58,54 L59,53 L63,53 L64,52 L66,52 L67,51 L71,51 L72,50 L76,50 L77,49 L80,49 L81,48 L82,48 L83,47 L85,47 L86,46 L88,46 L89,45 L91,45 L92,44 L93,44 L94,43 L96,43 L97,42 L99,42 L100,41 L101,41 L102,40 L103,40 L104,39 L105,39 L106,38 L107,38 L108,37 L109,37 L111,35 L112,35 L116,31 L116,30 L118,28 L118,24 L119,23 L119,22 L118,21 L118,16 L117,15 L117,14 L115,12 L115,11 L111,7 L110,7 L108,5 L106,5 L105,4 L103,4 L102,3 L98,3 Z M45,272 L46,271 L47,272 L46,273 Z M35,256 L36,255 L37,256 L36,257 Z M90,89 L92,91 L92,96 L89,99 L86,96 L86,91 L87,90 L88,90 L89,89 Z M72,95 L73,94 L73,93 L74,92 L74,91 L75,90 L75,89 L81,83 L82,83 L84,81 L86,81 L87,80 L88,80 L89,79 L93,79 L94,80 L96,80 L98,82 L99,82 L101,84 L101,85 L102,86 L102,88 L104,90 L104,93 L103,94 L103,96 L98,101 L94,101 L93,100 L93,99 L95,97 L95,90 L94,89 L94,88 L93,87 L91,87 L90,86 L87,86 L84,89 L84,92 L83,93 L83,95 L84,96 L84,98 L83,99 L79,99 L78,98 L77,98 L76,97 L73,97 L72,96 Z M62,88 L63,87 L63,86 L71,78 L72,78 L74,76 L75,76 L76,75 L77,75 L78,74 L80,74 L81,73 L82,73 L83,72 L85,72 L86,71 L99,71 L100,72 L102,72 L103,73 L104,73 L106,75 L107,75 L110,78 L110,79 L112,81 L112,82 L113,83 L113,84 L114,85 L114,86 L115,87 L115,91 L116,92 L116,93 L115,94 L115,95 L114,96 L114,98 L109,103 L108,103 L106,105 L105,105 L104,106 L103,106 L102,107 L100,107 L99,108 L97,108 L96,109 L92,109 L91,110 L81,110 L80,109 L78,109 L77,108 L75,108 L74,107 L74,106 L72,104 L72,101 L73,100 L74,100 L75,101 L79,101 L80,102 L86,102 L87,103 L88,102 L89,103 L91,103 L92,104 L94,104 L95,103 L96,104 L98,104 L99,103 L100,103 L102,101 L103,101 L104,100 L104,99 L105,98 L105,97 L106,96 L106,88 L105,87 L105,86 L104,85 L104,84 L103,83 L103,82 L100,79 L99,79 L98,78 L97,78 L96,77 L86,77 L85,78 L84,78 L83,79 L81,79 L77,83 L76,83 L73,86 L73,87 L72,88 L72,89 L71,90 L71,92 L69,94 L68,94 L65,91 L64,91 L63,90 L63,89 Z M109,61 L111,63 L112,63 L113,64 L114,64 L118,68 L119,68 L120,69 L120,70 L123,73 L123,74 L125,76 L125,77 L126,78 L126,79 L127,80 L127,82 L128,83 L128,85 L129,86 L129,98 L128,99 L128,100 L127,101 L127,102 L125,104 L125,105 L121,109 L120,109 L117,112 L116,112 L115,113 L114,113 L112,115 L110,115 L109,116 L108,116 L107,117 L103,117 L102,118 L99,118 L98,119 L81,119 L80,118 L76,118 L75,117 L74,117 L73,116 L72,116 L71,115 L70,115 L68,113 L67,113 L63,109 L63,108 L62,107 L62,106 L61,105 L61,103 L60,102 L60,98 L59,97 L59,96 L60,95 L60,93 L61,92 L63,94 L64,94 L65,95 L65,96 L66,96 L67,97 L68,97 L69,98 L69,104 L70,105 L70,106 L71,107 L71,108 L74,111 L77,111 L78,112 L80,112 L81,113 L90,113 L91,112 L92,113 L93,112 L96,112 L97,111 L99,111 L100,110 L102,110 L103,109 L104,109 L105,108 L106,108 L107,107 L108,107 L109,106 L110,106 L116,100 L116,99 L117,98 L117,97 L118,96 L118,87 L117,86 L117,84 L116,83 L116,82 L115,81 L115,80 L114,79 L114,78 L113,78 L112,77 L112,76 L107,71 L106,71 L105,70 L103,70 L102,69 L99,69 L98,68 L87,68 L86,69 L83,69 L82,70 L81,70 L80,71 L77,71 L76,72 L75,72 L74,73 L73,73 L72,74 L71,74 L67,78 L66,78 L65,79 L65,80 L61,84 L61,85 L60,86 L59,86 L58,85 L58,84 L57,83 L57,82 L56,81 L57,80 L57,79 L60,76 L60,75 L67,68 L68,68 L70,66 L71,66 L73,64 L74,64 L75,63 L77,63 L78,62 L79,62 L80,61 L82,61 L83,60 L85,60 L86,59 L90,59 L91,58 L92,59 L93,58 L94,59 L103,59 L104,60 L106,60 L107,61 Z M115,16 L115,19 L116,20 L116,24 L115,25 L115,27 L114,28 L114,29 L111,32 L110,32 L107,35 L106,35 L105,36 L104,36 L103,37 L102,37 L101,38 L100,38 L99,39 L97,39 L96,40 L95,40 L94,41 L91,41 L90,42 L89,42 L88,43 L86,43 L85,44 L83,44 L82,45 L80,45 L79,46 L77,46 L76,47 L72,47 L71,48 L69,48 L68,49 L64,49 L63,50 L60,50 L59,51 L53,51 L52,52 L48,52 L47,53 L46,53 L45,52 L45,51 L44,50 L45,49 L44,48 L44,36 L45,35 L45,32 L46,31 L46,29 L47,28 L47,26 L48,25 L48,24 L49,23 L49,22 L56,15 L57,15 L58,14 L59,14 L61,12 L62,12 L63,11 L64,11 L65,10 L67,10 L68,9 L70,9 L71,8 L72,8 L73,7 L77,7 L78,6 L83,6 L84,5 L98,5 L99,6 L102,6 L103,7 L105,7 L106,8 L107,8 L109,10 L110,10 L113,13 L113,14 Z"/></svg>