<svg xmlns="http://www.w3.org/2000/svg" viewBox="-14 -14 384 245" role="img"><title>Vectorización de recorte documental</title><path fill="currentColor" fill-rule="evenodd" d="M26,47 L25,47 L24,48 L24,63 L25,64 L24,65 L24,68 L25,69 L24,70 L24,79 L25,80 L24,81 L24,83 L25,84 L24,85 L24,86 L25,87 L25,88 L24,89 L24,90 L23,91 L21,91 L20,90 L19,90 L19,91 L20,92 L20,94 L21,95 L21,96 L22,97 L22,99 L23,100 L23,102 L24,103 L24,105 L25,106 L25,108 L26,107 L26,106 L27,105 L27,104 L28,103 L28,101 L29,100 L29,98 L30,97 L30,95 L31,94 L31,92 L32,91 L32,90 L31,90 L30,91 L28,91 L27,90 L27,89 L26,88 L27,87 L26,86 Z M2,173 L2,187 L3,188 L3,190 L4,191 L4,193 L6,195 L6,197 L8,199 L8,200 L11,203 L11,204 L12,204 L17,209 L18,209 L19,210 L21,210 L22,211 L24,211 L25,212 L28,212 L29,213 L38,213 L39,212 L40,212 L41,211 L44,211 L45,210 L46,210 L47,209 L48,209 L50,207 L51,207 L52,206 L53,206 L56,203 L57,203 L57,202 L58,201 L59,201 L59,200 L60,199 L61,199 L62,198 L62,197 L66,193 L66,192 L70,188 L70,187 L71,186 L71,185 L74,182 L74,181 L76,179 L76,178 L78,176 L78,175 L79,174 L79,173 L82,170 L82,169 L83,168 L83,167 L85,165 L85,164 L87,162 L87,161 L88,160 L88,159 L89,158 L89,157 L91,155 L91,154 L92,153 L92,152 L93,151 L93,150 L94,149 L94,148 L96,146 L96,145 L97,144 L97,143 L98,142 L98,141 L99,140 L99,138 L101,136 L101,135 L102,134 L102,133 L103,132 L103,131 L104,130 L104,128 L105,127 L105,126 L106,125 L106,124 L107,123 L107,122 L108,121 L108,119 L109,118 L109,117 L110,116 L110,114 L111,113 L111,112 L112,111 L112,109 L113,108 L113,107 L114,106 L114,104 L115,103 L115,101 L116,100 L116,97 L117,96 L117,95 L118,94 L118,91 L119,90 L119,88 L120,87 L120,84 L121,83 L121,81 L122,80 L122,76 L123,75 L123,73 L124,72 L124,66 L125,65 L125,60 L126,59 L126,54 L127,53 L127,49 L128,48 L128,42 L129,41 L130,41 L131,42 L135,42 L136,43 L137,42 L138,43 L147,43 L148,44 L159,44 L160,45 L161,44 L165,44 L166,45 L167,45 L168,44 L169,44 L170,45 L171,45 L172,44 L174,44 L175,45 L179,45 L180,44 L195,44 L196,43 L207,43 L208,42 L212,42 L213,41 L220,41 L221,40 L224,40 L225,39 L226,39 L227,40 L227,51 L228,52 L228,56 L229,57 L229,66 L230,67 L230,70 L231,71 L231,76 L232,77 L232,80 L233,81 L233,84 L234,85 L234,87 L235,88 L235,91 L236,92 L236,93 L237,94 L237,97 L238,98 L238,101 L239,102 L239,104 L240,105 L240,107 L241,108 L241,110 L242,111 L242,112 L243,113 L243,115 L244,116 L244,117 L245,118 L245,120 L246,121 L246,122 L247,123 L247,125 L249,127 L249,128 L250,129 L250,130 L251,131 L251,132 L252,133 L252,134 L253,135 L253,136 L254,137 L254,138 L255,139 L255,140 L256,140 L257,141 L257,142 L260,145 L260,146 L261,146 L266,151 L266,152 L267,152 L269,154 L269,155 L270,155 L278,163 L279,163 L281,165 L280,166 L281,165 L282,166 L283,166 L288,171 L289,171 L291,173 L292,173 L295,176 L296,176 L298,178 L299,178 L300,179 L301,179 L303,181 L304,181 L306,183 L308,183 L309,184 L310,184 L311,185 L312,185 L313,186 L314,186 L315,187 L317,187 L318,188 L319,188 L320,189 L323,189 L324,190 L327,190 L328,191 L335,191 L336,190 L338,190 L339,189 L341,189 L343,187 L344,187 L347,184 L347,183 L349,181 L349,180 L350,179 L350,177 L351,176 L351,174 L352,173 L352,169 L353,168 L353,162 L352,161 L352,158 L351,157 L351,154 L349,152 L349,151 L345,147 L344,147 L342,145 L341,145 L340,144 L339,144 L338,143 L326,143 L325,144 L324,144 L323,145 L322,145 L318,149 L318,150 L317,151 L317,152 L316,153 L316,155 L315,156 L315,158 L318,158 L318,157 L319,156 L319,153 L320,152 L320,151 L323,148 L324,148 L325,147 L326,147 L327,146 L328,146 L329,145 L335,145 L336,146 L337,146 L338,147 L340,147 L343,150 L344,150 L346,152 L346,153 L348,155 L348,156 L349,157 L349,159 L350,160 L350,170 L349,171 L349,174 L348,175 L348,176 L347,177 L347,179 L345,181 L345,182 L342,185 L341,185 L339,187 L336,187 L335,188 L327,188 L326,187 L323,187 L322,186 L321,186 L320,185 L317,185 L316,184 L315,184 L314,183 L313,183 L312,182 L311,182 L310,181 L309,181 L308,180 L307,180 L306,179 L305,179 L303,177 L302,177 L300,175 L299,175 L297,173 L296,173 L294,171 L293,171 L290,168 L289,168 L284,163 L283,163 L281,161 L280,161 L259,140 L259,139 L257,137 L257,136 L255,134 L255,133 L254,132 L254,131 L253,130 L253,129 L252,128 L252,127 L251,126 L251,125 L250,124 L250,123 L249,122 L249,121 L248,120 L248,118 L247,117 L247,116 L246,115 L246,114 L245,113 L245,111 L244,110 L244,109 L243,108 L243,105 L242,104 L242,102 L241,101 L241,99 L240,98 L240,97 L239,96 L239,92 L238,91 L238,89 L237,88 L237,84 L236,83 L236,81 L235,80 L235,76 L234,75 L234,73 L233,72 L233,68 L232,67 L232,62 L231,61 L231,54 L230,53 L230,47 L229,46 L230,45 L230,44 L229,43 L229,39 L230,38 L231,38 L232,37 L235,37 L236,36 L238,36 L239,35 L240,35 L241,34 L242,34 L244,32 L245,32 L251,26 L251,24 L252,23 L252,20 L251,19 L252,18 L251,17 L251,15 L250,14 L250,13 L249,12 L249,11 L248,11 L246,9 L243,9 L242,8 L241,8 L240,9 L237,9 L236,10 L235,10 L230,15 L230,16 L228,18 L228,20 L227,21 L227,33 L226,34 L227,35 L227,36 L226,37 L220,37 L219,38 L216,38 L215,39 L210,39 L209,40 L201,40 L200,41 L186,41 L185,42 L184,42 L183,41 L182,42 L159,42 L158,41 L143,41 L142,40 L135,40 L134,39 L130,39 L129,38 L129,13 L128,12 L128,9 L126,7 L126,6 L125,5 L124,5 L123,4 L121,4 L120,5 L118,5 L112,11 L112,13 L111,14 L111,15 L110,16 L110,29 L111,30 L111,31 L112,32 L112,33 L117,38 L118,38 L119,39 L122,39 L123,40 L125,40 L126,41 L126,43 L125,44 L126,45 L125,46 L125,49 L124,50 L124,56 L123,57 L123,61 L122,62 L122,69 L121,70 L121,72 L120,73 L120,77 L119,78 L119,80 L118,81 L118,85 L117,86 L117,88 L116,89 L116,91 L115,92 L115,94 L114,95 L114,97 L113,98 L113,100 L112,101 L112,103 L111,104 L111,106 L110,107 L110,109 L109,110 L109,111 L108,112 L108,113 L107,114 L107,116 L106,117 L106,118 L105,119 L105,120 L104,121 L104,123 L103,124 L103,125 L102,126 L102,127 L101,128 L101,129 L100,130 L100,131 L99,132 L99,133 L98,134 L98,136 L97,137 L97,138 L96,139 L96,140 L94,142 L94,143 L93,144 L93,146 L91,148 L91,149 L90,150 L90,151 L88,153 L88,154 L87,155 L87,156 L86,157 L86,158 L84,160 L84,161 L83,162 L83,163 L81,165 L81,166 L79,168 L79,169 L78,170 L78,171 L76,173 L76,174 L74,176 L74,177 L72,179 L72,180 L69,183 L69,184 L67,186 L67,187 L64,190 L64,191 L52,203 L51,203 L49,205 L48,205 L46,207 L45,207 L44,208 L42,208 L41,209 L39,209 L38,210 L28,210 L27,209 L24,209 L23,208 L22,208 L21,207 L20,207 L19,206 L18,206 L10,198 L10,197 L9,196 L9,195 L8,194 L8,193 L7,192 L7,191 L6,190 L6,189 L5,188 L5,185 L4,184 L4,175 L5,174 L5,172 L6,171 L6,170 L7,169 L7,168 L9,166 L9,165 L10,164 L10,163 L11,162 L12,162 L16,158 L17,158 L19,156 L21,156 L22,155 L30,155 L31,156 L33,156 L34,157 L35,157 L36,158 L37,158 L40,161 L40,165 L37,168 L36,168 L38,170 L39,170 L42,167 L42,166 L43,165 L43,162 L42,161 L42,159 L38,155 L37,155 L36,154 L34,154 L33,153 L30,153 L29,152 L28,152 L27,153 L26,152 L25,153 L24,152 L23,153 L19,153 L18,154 L17,154 L16,155 L15,155 L12,158 L11,158 L8,161 L8,162 L6,164 L6,165 L4,167 L4,169 L3,170 L3,172 Z M244,11 L247,14 L247,15 L248,16 L248,17 L249,18 L249,23 L248,24 L248,25 L243,30 L242,30 L241,31 L240,31 L238,33 L236,33 L235,34 L233,34 L232,35 L230,35 L229,34 L229,24 L230,23 L230,21 L231,20 L231,19 L232,18 L232,17 L236,13 L237,13 L239,11 Z M121,7 L123,7 L124,8 L124,9 L125,10 L125,11 L126,12 L126,16 L127,17 L127,29 L126,30 L126,36 L125,37 L122,37 L121,36 L120,36 L119,35 L118,35 L115,32 L115,31 L113,29 L113,27 L112,26 L112,19 L113,18 L113,16 L114,15 L114,14 L116,12 L116,11 L119,8 L120,8 Z"/></svg>