<svg xmlns="http://www.w3.org/2000/svg" viewBox="-14 -14 290 297" role="img"><title>Vectorización de recorte documental</title><path fill="currentColor" fill-rule="evenodd" d="M19,97 L18,98 L18,101 L19,102 L18,103 L18,112 L19,113 L18,114 L18,138 L19,139 L18,140 L18,141 L17,142 L16,142 L15,141 L13,141 L13,143 L14,144 L14,146 L15,147 L15,148 L16,149 L16,152 L17,153 L17,154 L18,155 L18,156 L19,157 L19,159 L19,158 L20,157 L20,156 L21,155 L21,153 L22,152 L22,150 L23,149 L23,147 L24,146 L24,144 L25,143 L25,142 L26,141 L23,141 L22,142 L21,142 L20,141 L20,98 Z M181,4 L180,4 L179,3 L177,3 L176,2 L171,2 L170,3 L169,3 L168,4 L167,4 L166,5 L165,5 L165,6 L163,8 L163,9 L162,10 L161,10 L160,9 L159,9 L158,8 L155,8 L154,9 L152,9 L151,10 L150,10 L144,16 L144,17 L143,18 L143,19 L141,21 L141,23 L140,24 L140,25 L139,26 L139,41 L140,42 L140,45 L141,46 L141,50 L142,51 L142,54 L143,55 L143,57 L144,58 L144,59 L145,60 L145,62 L146,63 L146,64 L147,65 L147,66 L148,67 L148,69 L149,70 L149,71 L150,72 L150,74 L151,75 L151,77 L153,79 L153,80 L154,81 L154,83 L155,84 L155,85 L157,87 L157,89 L158,90 L158,91 L159,92 L159,93 L160,94 L160,95 L161,96 L159,98 L159,100 L157,102 L157,103 L156,104 L156,105 L155,106 L155,107 L153,109 L153,110 L152,111 L152,112 L150,114 L150,115 L148,117 L148,118 L146,120 L146,121 L143,124 L143,125 L141,127 L141,128 L136,133 L136,134 L135,135 L135,136 L130,141 L130,142 L127,145 L127,146 L124,149 L124,150 L123,151 L122,151 L122,152 L118,156 L117,155 L117,154 L114,151 L114,150 L112,148 L112,147 L108,143 L108,142 L107,141 L107,140 L103,136 L103,135 L101,133 L101,132 L99,130 L99,127 L100,126 L100,125 L101,124 L101,122 L102,121 L102,120 L103,119 L103,117 L104,116 L104,115 L105,114 L105,112 L106,111 L106,110 L107,109 L107,106 L108,105 L108,102 L109,101 L109,100 L110,99 L110,97 L111,96 L111,94 L112,93 L112,91 L113,90 L113,87 L114,86 L114,84 L115,83 L115,79 L116,78 L116,75 L117,74 L117,71 L118,70 L118,67 L119,66 L119,55 L120,54 L120,42 L119,41 L119,34 L118,33 L118,32 L117,31 L117,30 L116,29 L116,28 L111,23 L110,23 L108,21 L105,21 L104,20 L95,20 L94,21 L93,21 L92,22 L91,22 L89,24 L88,24 L87,25 L87,26 L83,30 L83,31 L82,32 L82,33 L81,34 L81,35 L80,36 L80,38 L79,39 L79,41 L77,43 L77,46 L76,47 L76,50 L75,51 L75,54 L74,55 L74,56 L75,57 L75,58 L74,59 L74,70 L75,71 L75,78 L76,79 L76,82 L77,83 L77,88 L78,89 L78,92 L79,93 L79,94 L80,95 L80,98 L81,99 L81,101 L82,102 L82,104 L83,105 L83,106 L84,107 L84,108 L85,109 L85,110 L86,111 L86,113 L87,114 L87,115 L88,116 L88,117 L89,118 L89,119 L90,120 L90,121 L91,122 L91,123 L93,125 L93,126 L94,127 L94,128 L96,130 L95,131 L95,132 L94,133 L94,134 L93,135 L93,137 L92,138 L92,139 L91,140 L91,142 L90,143 L90,144 L89,145 L89,146 L88,147 L88,148 L87,149 L87,151 L86,152 L86,153 L85,154 L85,155 L84,156 L84,157 L83,158 L83,159 L82,160 L82,161 L81,162 L81,164 L80,165 L80,166 L79,167 L79,168 L78,169 L78,170 L77,171 L77,172 L76,173 L76,174 L75,175 L75,176 L74,177 L74,179 L72,181 L72,183 L71,184 L71,185 L70,186 L70,187 L69,188 L69,189 L68,190 L68,191 L66,193 L66,195 L64,197 L64,199 L62,201 L62,203 L60,205 L60,206 L59,207 L59,208 L58,209 L58,210 L57,211 L57,212 L56,213 L56,214 L54,216 L54,217 L52,219 L52,220 L51,221 L51,222 L49,224 L49,225 L48,226 L48,227 L46,229 L46,231 L44,233 L44,234 L42,236 L42,237 L38,241 L38,242 L32,248 L31,248 L29,250 L21,250 L20,249 L19,249 L18,248 L17,248 L16,247 L15,247 L10,242 L10,241 L8,239 L8,238 L7,237 L7,236 L6,235 L6,231 L5,230 L5,224 L6,223 L6,221 L8,219 L8,218 L12,214 L13,214 L15,212 L18,212 L19,211 L27,211 L28,212 L29,212 L33,216 L33,217 L34,218 L34,219 L35,220 L35,223 L34,224 L34,227 L33,228 L33,229 L30,232 L29,232 L28,233 L27,233 L26,232 L25,232 L22,229 L22,230 L21,231 L21,232 L25,236 L29,236 L30,235 L32,235 L34,233 L34,232 L36,230 L36,228 L37,227 L37,222 L38,221 L38,220 L37,219 L37,218 L36,217 L36,215 L35,214 L35,213 L33,211 L32,211 L31,210 L30,210 L28,208 L16,208 L15,209 L14,209 L12,211 L11,211 L8,214 L7,214 L6,215 L6,216 L5,217 L5,218 L4,219 L4,221 L3,222 L3,224 L2,225 L2,229 L3,230 L3,234 L4,235 L4,237 L5,238 L5,239 L6,240 L6,241 L7,242 L7,243 L8,244 L8,245 L12,249 L13,249 L14,250 L15,250 L16,251 L17,251 L18,252 L19,252 L20,253 L22,253 L23,254 L24,253 L25,254 L26,253 L29,253 L30,252 L32,252 L33,251 L34,251 L39,246 L39,245 L42,242 L42,241 L45,238 L45,237 L46,236 L46,235 L48,233 L48,232 L49,231 L49,230 L50,229 L50,228 L52,226 L52,225 L54,223 L54,222 L55,221 L55,220 L56,219 L56,218 L58,216 L58,215 L59,214 L59,213 L60,212 L60,211 L62,209 L62,208 L63,207 L63,206 L64,205 L64,204 L65,203 L65,202 L66,201 L66,200 L67,199 L67,198 L68,197 L68,196 L69,195 L69,194 L70,193 L70,192 L71,191 L71,190 L72,189 L72,188 L73,187 L73,186 L74,185 L74,184 L75,183 L75,182 L76,181 L76,180 L77,179 L77,178 L78,177 L78,176 L79,175 L79,173 L80,172 L80,171 L81,170 L81,169 L82,168 L82,166 L84,164 L84,163 L85,162 L85,161 L86,160 L86,159 L87,158 L87,157 L88,156 L88,154 L89,153 L89,152 L90,151 L90,150 L91,149 L91,147 L92,146 L92,145 L93,144 L93,143 L94,142 L94,141 L95,140 L95,138 L96,137 L96,135 L97,134 L98,134 L99,135 L99,136 L102,139 L102,140 L105,143 L105,144 L109,148 L109,149 L111,151 L111,152 L114,155 L114,156 L116,158 L116,159 L115,160 L115,161 L112,164 L112,165 L109,168 L109,169 L107,171 L107,172 L105,174 L105,175 L103,177 L103,178 L100,181 L100,182 L98,184 L98,185 L96,187 L96,188 L94,190 L94,191 L93,192 L93,193 L91,195 L91,196 L90,197 L90,198 L89,199 L89,200 L87,202 L87,203 L86,204 L86,205 L85,206 L85,207 L83,209 L83,210 L82,211 L82,212 L81,213 L81,214 L80,215 L80,217 L79,218 L79,219 L78,220 L78,222 L77,223 L77,225 L76,226 L76,229 L75,230 L75,232 L74,233 L74,246 L75,247 L75,248 L76,249 L76,251 L78,253 L78,254 L80,256 L81,256 L82,257 L82,258 L84,258 L85,259 L87,259 L88,260 L89,259 L94,259 L95,258 L98,258 L99,257 L100,257 L101,256 L102,256 L103,255 L104,255 L105,254 L106,254 L107,253 L108,253 L109,254 L109,255 L111,257 L111,258 L113,260 L114,260 L115,261 L116,261 L117,262 L127,262 L128,261 L130,261 L131,260 L133,260 L135,258 L137,258 L139,256 L140,256 L147,249 L147,248 L148,247 L148,246 L149,245 L149,244 L150,243 L150,242 L151,241 L151,234 L152,233 L152,228 L151,227 L151,220 L150,219 L150,216 L149,215 L149,211 L148,210 L148,209 L147,208 L147,206 L146,205 L146,204 L145,203 L145,202 L144,201 L144,199 L143,198 L143,197 L142,196 L142,195 L141,194 L141,193 L140,192 L140,191 L139,190 L139,189 L138,188 L138,187 L137,186 L137,185 L135,183 L135,182 L134,181 L134,180 L133,179 L133,178 L131,176 L131,175 L129,173 L129,172 L127,170 L127,169 L125,167 L125,166 L124,165 L124,164 L123,163 L123,162 L121,160 L121,159 L120,158 L121,157 L122,157 L123,156 L123,155 L126,152 L126,151 L130,147 L130,146 L134,142 L134,141 L137,138 L137,137 L140,134 L140,133 L145,128 L145,127 L146,126 L146,125 L149,122 L149,121 L151,119 L151,118 L153,116 L153,114 L156,111 L156,110 L157,109 L157,108 L159,106 L159,105 L160,104 L160,103 L161,102 L161,101 L162,100 L163,100 L164,101 L164,102 L165,103 L165,104 L167,106 L167,107 L170,110 L170,111 L173,114 L173,115 L180,122 L180,123 L182,125 L183,125 L193,135 L194,135 L196,137 L197,137 L199,139 L200,139 L201,140 L202,140 L203,141 L205,141 L206,142 L207,142 L208,143 L211,143 L212,144 L212,146 L213,147 L213,148 L214,149 L214,151 L216,153 L216,154 L217,155 L217,156 L219,158 L219,159 L220,160 L220,161 L222,163 L222,164 L229,171 L229,172 L233,176 L233,177 L238,182 L238,183 L241,186 L241,187 L244,190 L244,191 L247,194 L247,195 L249,197 L249,198 L251,200 L251,201 L252,202 L252,203 L253,204 L253,206 L254,207 L254,209 L255,210 L255,211 L256,212 L256,219 L257,220 L257,223 L256,224 L256,231 L255,232 L255,233 L254,234 L254,237 L253,238 L253,239 L252,240 L252,242 L250,244 L250,245 L247,248 L247,249 L243,253 L243,254 L242,255 L241,255 L240,256 L239,256 L235,260 L233,260 L232,261 L230,261 L229,262 L224,262 L223,263 L214,263 L213,262 L210,262 L209,261 L208,261 L207,260 L206,260 L204,258 L203,258 L195,250 L195,249 L194,248 L194,246 L193,245 L193,244 L192,243 L192,239 L191,238 L191,228 L192,227 L192,223 L193,222 L193,221 L194,220 L194,219 L195,218 L195,217 L198,214 L198,213 L199,212 L200,212 L203,209 L204,209 L205,208 L206,208 L207,207 L211,207 L212,206 L214,206 L215,207 L221,207 L222,208 L223,208 L224,209 L225,209 L228,212 L229,212 L230,213 L230,214 L231,215 L231,216 L233,218 L233,220 L234,221 L234,229 L233,230 L233,232 L232,233 L232,235 L230,237 L230,239 L225,244 L224,244 L223,245 L222,245 L221,246 L220,246 L219,247 L211,247 L210,246 L208,246 L207,245 L206,245 L202,241 L202,238 L201,237 L201,232 L202,231 L202,228 L203,227 L203,226 L208,221 L210,221 L211,220 L213,220 L214,221 L216,221 L217,222 L219,222 L220,223 L220,224 L222,226 L222,231 L221,232 L221,233 L219,235 L217,235 L215,233 L215,232 L214,233 L213,233 L212,234 L213,235 L213,236 L215,238 L220,238 L222,236 L223,236 L223,235 L224,234 L224,232 L225,231 L225,226 L224,225 L224,223 L221,220 L220,220 L218,218 L214,218 L213,217 L210,217 L209,218 L207,218 L206,219 L205,219 L202,222 L202,223 L200,225 L200,227 L199,228 L199,231 L198,232 L198,237 L199,238 L199,241 L200,242 L200,243 L205,248 L206,248 L207,249 L208,249 L209,250 L220,250 L221,249 L222,249 L223,248 L224,248 L225,247 L226,247 L229,244 L230,244 L230,243 L232,241 L232,240 L233,239 L233,238 L235,236 L235,234 L236,233 L236,218 L235,217 L235,216 L234,215 L234,214 L232,212 L232,211 L229,208 L228,208 L226,206 L225,206 L224,205 L222,205 L221,204 L216,204 L215,203 L212,203 L211,204 L207,204 L206,205 L204,205 L202,207 L201,207 L200,208 L199,208 L194,213 L194,214 L193,215 L193,216 L192,217 L192,218 L191,219 L191,220 L190,221 L190,223 L189,224 L189,226 L188,227 L188,238 L189,239 L189,243 L190,244 L190,245 L191,246 L191,248 L192,249 L192,250 L193,251 L193,252 L195,254 L195,255 L199,259 L200,259 L203,262 L204,262 L205,263 L206,263 L207,264 L209,264 L210,265 L212,265 L213,266 L226,266 L227,265 L230,265 L231,264 L233,264 L234,263 L236,263 L239,260 L240,260 L241,259 L242,259 L249,252 L249,251 L251,249 L251,248 L253,246 L253,245 L254,244 L254,243 L255,242 L255,241 L256,240 L256,237 L257,236 L257,234 L258,233 L258,228 L259,227 L259,216 L258,215 L259,214 L258,213 L258,209 L257,208 L257,207 L256,206 L256,204 L255,203 L255,202 L254,201 L254,199 L252,197 L252,196 L250,194 L250,193 L246,189 L246,187 L242,183 L242,182 L238,178 L238,177 L234,173 L234,172 L233,171 L232,171 L231,170 L231,169 L226,164 L226,163 L223,160 L223,159 L220,156 L220,155 L219,154 L219,153 L218,152 L218,151 L217,150 L217,149 L216,148 L216,146 L215,145 L215,144 L217,142 L220,142 L221,141 L223,141 L225,139 L227,139 L232,134 L232,133 L233,132 L233,131 L234,130 L234,119 L232,117 L231,117 L230,116 L225,116 L224,117 L223,117 L219,121 L218,121 L218,122 L214,126 L214,128 L213,129 L213,130 L212,131 L212,134 L211,135 L211,139 L210,140 L209,139 L207,139 L206,138 L204,138 L203,137 L202,137 L201,136 L200,136 L198,134 L197,134 L194,131 L193,131 L178,116 L178,115 L174,111 L174,110 L169,105 L169,104 L168,103 L168,102 L167,101 L167,100 L164,97 L164,96 L165,95 L165,93 L167,91 L167,89 L169,87 L169,85 L171,83 L171,81 L173,79 L173,78 L174,77 L174,75 L175,74 L175,73 L176,72 L176,71 L177,70 L177,69 L178,68 L178,66 L179,65 L179,64 L180,63 L180,62 L181,61 L181,60 L182,59 L182,57 L183,56 L183,55 L184,54 L184,51 L185,50 L185,48 L186,47 L186,42 L187,41 L187,37 L188,36 L188,18 L187,17 L187,14 L186,13 L186,11 L185,10 L185,9 L184,8 L184,7 Z M74,241 L75,240 L76,241 L75,242 Z M116,215 L117,216 L119,216 L120,217 L121,217 L122,218 L123,218 L124,219 L124,220 L125,221 L125,227 L124,228 L124,230 L123,231 L123,232 L121,234 L121,235 L117,239 L117,240 L111,246 L110,246 L109,247 L108,246 L108,243 L107,242 L107,230 L108,229 L108,226 L109,225 L109,222 L110,221 L110,220 L111,219 L111,218 L113,216 L115,216 Z M194,215 L195,214 L196,215 L195,216 Z M216,205 L217,204 L218,205 L217,206 Z M118,161 L119,162 L119,163 L122,166 L122,167 L123,168 L123,169 L124,170 L124,171 L126,173 L126,174 L127,175 L127,176 L130,179 L130,180 L132,182 L132,183 L133,184 L133,185 L134,186 L134,187 L135,188 L135,189 L136,190 L136,191 L138,193 L138,194 L139,195 L139,197 L140,198 L140,199 L141,200 L141,201 L142,202 L142,203 L143,204 L143,205 L144,206 L144,208 L145,209 L145,211 L146,212 L146,214 L147,215 L147,218 L148,219 L148,221 L149,222 L149,238 L148,239 L148,241 L147,242 L147,243 L145,245 L145,246 L143,248 L143,249 L139,253 L138,253 L137,254 L136,254 L135,255 L134,255 L133,256 L132,256 L131,257 L130,257 L129,258 L126,258 L125,259 L118,259 L117,258 L116,258 L111,253 L111,252 L110,251 L113,248 L114,248 L116,246 L116,245 L117,244 L118,244 L119,243 L119,242 L122,239 L122,238 L124,236 L124,235 L125,234 L125,233 L126,232 L126,231 L127,230 L127,227 L128,226 L128,221 L127,220 L127,219 L126,218 L126,217 L124,215 L123,215 L122,214 L121,214 L120,213 L119,213 L118,212 L114,212 L112,214 L111,214 L109,216 L109,217 L108,218 L108,219 L107,220 L107,222 L106,223 L106,225 L105,226 L105,245 L106,246 L106,250 L105,251 L104,251 L103,252 L102,252 L101,253 L100,253 L99,254 L97,254 L96,255 L95,255 L94,256 L86,256 L85,255 L84,255 L83,254 L82,254 L81,253 L81,252 L78,249 L78,246 L77,245 L77,242 L76,241 L77,240 L77,234 L78,233 L78,230 L79,229 L79,226 L80,225 L80,223 L81,222 L81,220 L82,219 L82,217 L84,215 L84,214 L85,213 L85,212 L86,211 L86,210 L87,209 L87,208 L89,206 L89,205 L90,204 L90,203 L91,202 L91,201 L93,199 L93,197 L96,194 L96,193 L97,192 L97,191 L99,189 L99,188 L101,186 L101,185 L104,182 L104,181 L106,179 L106,178 L108,176 L108,175 L109,174 L109,173 L110,172 L111,172 L111,170 L115,166 L115,165 L117,163 L117,162 Z M127,146 L128,145 L129,146 L128,147 Z M93,138 L94,137 L95,138 L94,139 Z M229,119 L232,122 L232,127 L231,128 L231,130 L230,131 L230,132 L228,134 L227,134 L225,136 L224,136 L223,137 L222,137 L221,138 L220,138 L219,139 L215,139 L214,138 L214,133 L215,132 L215,131 L216,130 L216,129 L218,127 L218,126 L223,121 L224,121 L226,119 Z M163,100 L164,99 L165,100 L164,101 Z M143,55 L144,54 L145,55 L144,56 Z M103,23 L104,24 L107,24 L108,25 L109,25 L113,29 L113,30 L115,32 L115,34 L116,35 L116,38 L117,39 L117,60 L116,61 L116,65 L115,66 L115,71 L114,72 L114,74 L113,75 L113,79 L112,80 L112,82 L111,83 L111,86 L110,87 L110,89 L109,90 L109,93 L108,94 L108,96 L107,97 L107,100 L106,101 L106,102 L105,103 L105,106 L104,107 L104,108 L103,109 L103,111 L102,112 L102,114 L101,115 L101,116 L100,117 L100,118 L99,119 L99,121 L98,122 L98,124 L97,125 L96,125 L95,124 L95,123 L94,122 L94,121 L93,120 L93,119 L92,118 L92,117 L90,115 L90,113 L89,112 L89,111 L88,110 L88,109 L87,108 L87,106 L86,105 L86,104 L85,103 L85,101 L84,100 L84,99 L83,98 L83,97 L82,96 L82,92 L81,91 L81,89 L80,88 L80,85 L79,84 L79,80 L78,79 L78,74 L77,73 L77,56 L78,55 L78,50 L79,49 L79,47 L80,46 L80,43 L81,42 L81,41 L82,40 L82,38 L84,36 L84,35 L85,34 L85,33 L89,29 L89,28 L91,26 L92,26 L94,24 L96,24 L97,23 Z M164,16 L165,17 L165,19 L166,20 L166,21 L167,22 L167,23 L168,24 L168,26 L169,27 L169,39 L168,40 L168,41 L167,42 L167,43 L164,46 L162,44 L162,42 L161,41 L161,20 L162,19 L162,18 Z M175,5 L176,6 L178,6 L182,10 L182,11 L183,12 L183,13 L184,14 L184,17 L185,18 L185,23 L186,24 L185,25 L186,26 L186,27 L185,28 L186,29 L185,30 L185,37 L184,38 L184,43 L183,44 L183,47 L182,48 L182,51 L181,52 L181,53 L180,54 L181,55 L180,56 L180,57 L178,59 L178,62 L176,64 L176,65 L175,66 L175,68 L174,69 L174,70 L172,72 L172,73 L171,74 L171,76 L170,77 L170,78 L169,79 L169,80 L168,81 L168,82 L167,83 L167,84 L166,85 L166,86 L165,87 L165,88 L164,89 L164,91 L163,92 L162,92 L161,91 L161,90 L160,89 L160,87 L158,85 L158,83 L157,82 L157,81 L156,80 L156,79 L155,78 L155,77 L154,76 L154,75 L153,74 L153,72 L152,71 L152,70 L151,69 L151,67 L150,66 L150,65 L149,64 L149,63 L148,62 L148,61 L147,60 L147,57 L145,55 L145,51 L144,50 L144,48 L143,47 L143,42 L142,41 L142,40 L141,39 L141,31 L142,30 L142,26 L143,25 L143,23 L145,21 L145,20 L147,18 L147,17 L151,13 L152,13 L153,12 L159,12 L161,14 L160,15 L160,17 L159,18 L159,20 L158,21 L158,38 L159,39 L159,44 L160,45 L160,46 L162,48 L162,49 L163,50 L164,49 L166,49 L169,46 L169,45 L170,44 L170,43 L171,42 L171,38 L172,37 L172,36 L171,35 L171,31 L172,30 L172,29 L171,28 L171,23 L170,22 L170,21 L169,20 L169,19 L168,18 L168,16 L165,13 L165,10 L168,7 L169,7 L170,6 L172,6 L173,5 Z M178,5 L179,4 L180,5 L179,6 Z"/></svg>